<?xml version="1.0" encoding="UTF-8"?>
<svg xmlns="http://www.w3.org/2000/svg" viewBox="0 0 200 200">
  <path fill="#FFFFFF" d="M17.61,119.7V80.3c0-7.18,5.82-13,13-13h114.88c7.18,0,13,5.82,13,13v39.41c0,7.18-5.82,13-13,13H30.61C23.43,132.7,17.61,126.88,17.61,119.7z"/>
  <path fill="#A1A1AA" d="M150.94,59.69c8.36,0,15.16,6.8,15.16,15.16v50.31c0,8.36-6.8,15.16-15.16,15.16H25.16c-8.36,0-15.16-6.8-15.16-15.16V74.84c0-8.36,6.8-15.16,15.16-15.16H150.94 M150.94,49.69H25.16C11.26,49.69,0,60.95,0,74.84v50.31c0,13.89,11.26,25.16,25.16,25.16h125.79c13.89,0,25.16-11.26,25.16-25.16V74.84C176.1,60.95,164.84,49.69,150.94,49.69L150.94,49.69z"/>
  <path fill="#A1A1AA" d="M200,100c0,10.42-8.45,18.87-18.87,18.87V81.13C191.55,81.13,200,89.58,200,100"/>
</svg>
