<?xml version="1.0" encoding="UTF-8"?>
<svg xmlns="http://www.w3.org/2000/svg" viewBox="0 0 200 200">
  <path fill="none" stroke="#FFFFFF" stroke-width="15" stroke-linejoin="miter" d="M131.25,125h25c3.45,0,6.25,2.8,6.25,6.25v25c0,3.45-2.8,6.25-6.25,6.25h-25c-3.45,0-6.25-2.8-6.25-6.25v-25 C125,127.8,127.8,125,131.25,125z M43.75,125h25c3.45,0,6.25,2.8,6.25,6.25v25c0,3.45-2.8,6.25-6.25,6.25h-25c-3.45,0-6.25-2.8-6.25-6.25v-25 C37.5,127.8,40.3,125,43.75,125z M87.5,37.5h25c3.45,0,6.25,2.8,6.25,6.25v25c0,3.45-2.8,6.25-6.25,6.25h-25c-3.45,0-6.25-2.8-6.25-6.25v-25 C81.25,40.3,84.05,37.5,87.5,37.5z M56.25,125v-18.75c0-3.45,2.8-6.25,6.25-6.25h75c3.45,0,6.25,2.8,6.25,6.25V125 M100,100v-25"/>
</svg>
